<svg viewBox="0 0 500 500" xmlns="http://www.w3.org/2000/svg">
  <defs></defs>
  <path id="path1314-6" style="stroke-width: 11.9048; fill: rgb(29, 29, 27);" d="M 14.533 59.773 L 14.533 345.488 L 300.247 345.488 L 300.247 59.773 L 14.533 59.773 Z M 94.621 123.863 L 155.431 123.863 C 173.351 123.863 187.232 127.389 197.074 134.439 C 206.915 141.343 211.835 151.329 211.835 164.402 C 211.835 171.893 210.072 178.43 206.546 184.011 C 203.021 189.446 197.807 193.78 190.904 197.011 C 200.451 200.096 207.722 205.016 212.716 211.773 C 217.857 218.383 220.427 226.462 220.427 236.01 C 220.427 245.41 217.931 253.489 212.937 260.246 C 208.09 267.003 201.112 272.216 192.005 275.888 C 182.898 279.561 171.956 281.396 159.177 281.396 L 94.621 281.396 L 94.621 123.863 Z M 127.449 149.42 L 127.449 188.638 L 152.347 188.638 C 160.866 188.638 167.329 186.877 171.736 183.351 C 176.289 179.679 178.566 174.611 178.566 168.148 C 178.566 155.663 169.826 149.42 152.347 149.42 L 127.449 149.42 Z M 127.449 213.316 L 127.449 255.84 L 156.091 255.84 C 165.933 255.84 173.499 254.076 178.787 250.551 C 184.074 246.878 186.718 241.665 186.718 234.908 C 186.718 220.513 176.656 213.316 156.533 213.316 L 127.449 213.316 Z M 728.818 59.773 L 728.818 345.488 L 1014.533 345.488 L 1014.533 59.773 L 728.818 59.773 Z M 883.41 120.556 C 892.076 120.556 900.229 121.512 907.867 123.422 C 915.652 125.184 922.849 127.828 929.458 131.353 L 929.458 162.64 C 923.436 158.528 916.9 155.443 909.849 153.386 C 902.799 151.183 895.382 150.082 887.597 150.082 C 876.874 150.082 867.694 152.137 860.056 156.25 C 852.565 160.363 846.763 166.312 842.65 174.097 C 838.684 181.882 836.701 191.356 836.701 202.519 C 836.701 213.683 838.61 223.23 842.429 231.162 C 846.395 238.947 852.05 244.895 859.394 249.008 C 866.885 253.12 875.918 255.177 886.494 255.177 C 902.651 255.177 917.562 250.844 931.222 242.177 L 931.222 272.804 C 924.759 276.477 917.267 279.34 908.747 281.396 C 900.228 283.6 891.269 284.701 881.869 284.701 C 869.383 284.701 858.146 282.865 848.158 279.193 C 838.169 275.374 829.723 269.939 822.82 262.888 C 815.916 255.838 810.629 247.246 806.956 237.111 C 803.284 226.829 801.449 215.298 801.449 202.519 C 801.449 190.034 803.358 178.797 807.177 168.808 C 810.996 158.673 816.503 150.008 823.701 142.81 C 830.898 135.613 839.492 130.104 849.48 126.285 C 859.615 122.466 870.924 120.556 883.41 120.556 L 883.41 120.556 Z M 371.675 59.773 L 371.675 345.488 L 657.39 345.488 L 657.39 59.773 L 371.675 59.773 Z M 451.763 123.863 L 512.574 123.863 C 530.494 123.863 544.375 127.389 554.216 134.439 C 564.058 141.343 568.978 151.329 568.978 164.402 C 568.978 171.893 567.214 178.43 563.689 184.011 C 560.164 189.446 554.95 193.78 548.046 197.011 C 557.594 200.096 564.865 205.016 569.859 211.773 C 575 218.383 577.57 226.462 577.57 236.01 C 577.57 245.41 575.074 253.489 570.079 260.246 C 565.232 267.003 558.255 272.216 549.148 275.888 C 540.041 279.561 529.099 281.396 516.32 281.396 L 451.763 281.396 L 451.763 123.863 Z M 484.591 149.42 L 484.591 188.638 L 509.49 188.638 C 518.009 188.638 524.472 186.877 528.878 183.351 C 533.432 179.679 535.708 174.611 535.708 168.148 C 535.708 155.663 526.969 149.42 509.49 149.42 L 484.591 149.42 Z M 484.591 213.316 L 484.591 255.84 L 513.234 255.84 C 523.075 255.84 530.641 254.076 535.929 250.551 C 541.217 246.878 543.861 241.665 543.861 234.908 C 543.861 220.513 533.798 213.316 513.675 213.316 L 484.591 213.316 Z"></path>
</svg>