<svg xmlns="http://www.w3.org/2000/svg" viewBox="0 0 84 24"><defs><style>.cls-1{fill:#1d1d1b;}</style></defs><g id="Layer_2" data-name="Layer 2"><g id="svg4"><path id="path1314-6" class="cls-1" d="M0,0V24H24V0ZM6.73,5.38h5.11a5.92,5.92,0,0,1,3.49.89,2.88,2.88,0,0,1,1.24,2.52,3,3,0,0,1-.44,1.65,3.1,3.1,0,0,1-1.31,1.09,3.55,3.55,0,0,1,1.83,1.24,3.2,3.2,0,0,1,.65,2,3.34,3.34,0,0,1-.63,2,3.84,3.84,0,0,1-1.76,1.31,7.38,7.38,0,0,1-2.76.47H6.73ZM9.48,7.53v3.29h2.1a2.57,2.57,0,0,0,1.63-.44,1.55,1.55,0,0,0,.57-1.28c0-1-.74-1.57-2.2-1.57Zm0,5.37v3.57h2.41A3.5,3.5,0,0,0,13.8,16a1.52,1.52,0,0,0,.66-1.32c0-1.21-.84-1.81-2.53-1.81ZM60,0V24H84V0ZM73,5.11A8.47,8.47,0,0,1,75,5.35,7.09,7.09,0,0,1,76.85,6V8.64a6,6,0,0,0-1.64-.78,6.46,6.46,0,0,0-1.87-.27A4.93,4.93,0,0,0,71,8.1a3.64,3.64,0,0,0-1.46,1.5,5.28,5.28,0,0,0-.5,2.39,5.54,5.54,0,0,0,.48,2.41A3.57,3.57,0,0,0,71,15.9a4.73,4.73,0,0,0,2.27.51A6.87,6.87,0,0,0,77,15.32v2.57a7.37,7.37,0,0,1-1.89.73,9.13,9.13,0,0,1-2.25.27A8.17,8.17,0,0,1,70,18.43a5.78,5.78,0,0,1-3.46-3.53A8.88,8.88,0,0,1,66.1,12a7.89,7.89,0,0,1,.48-2.83A6.08,6.08,0,0,1,68,7a6,6,0,0,1,2.17-1.39A8,8,0,0,1,73,5.11ZM30,0V24H54V0Zm6.73,5.38h5.11a5.92,5.92,0,0,1,3.49.89,2.88,2.88,0,0,1,1.24,2.52,3,3,0,0,1-.44,1.65,3.1,3.1,0,0,1-1.31,1.09,3.55,3.55,0,0,1,1.83,1.24,3.2,3.2,0,0,1,.65,2,3.34,3.34,0,0,1-.63,2,3.84,3.84,0,0,1-1.76,1.31,7.38,7.38,0,0,1-2.76.47H36.73Zm2.75,2.15v3.29h2.1a2.57,2.57,0,0,0,1.63-.44,1.55,1.55,0,0,0,.57-1.28c0-1-.74-1.57-2.2-1.57Zm0,5.37v3.57h2.41A3.5,3.5,0,0,0,43.8,16a1.52,1.52,0,0,0,.66-1.32c0-1.21-.84-1.81-2.53-1.81Z"/></g></g></svg>